<svg width="67" height="203" viewBox="0 0 67 203" fill="none" xmlns="http://www.w3.org/2000/svg">
<path d="M29.04 202.08C19.6 195.52 12.4 186.08 7.43996 173.76C2.47996 161.44 -3.85046e-05 147.28 -3.85046e-05 131.28C-3.85046e-05 121.68 0.959962 111.6 2.87996 101.04C6.87996 78.32 14.32 57.92 25.2 39.84C36.08 21.76 49.2 8.47999 64.56 -5.72205e-06H64.8C65.28 -5.72205e-06 65.68 0.319995 66 0.959996C66.48 1.43999 66.48 1.75999 66 1.92C52.72 13.28 41.92 27.2 33.6 43.68C25.44 60 19.44 79.12 15.6 101.04C13.2 114.48 12 126.96 12 138.48C12 164.08 18.24 184.64 30.72 200.16V200.4C30.72 200.88 30.48 201.28 30 201.6C29.68 202.08 29.36 202.24 29.04 202.08Z" fill="#FF6F00"/>
</svg>
