<svg width="67" height="203" viewBox="0 0 67 203" fill="none" xmlns="http://www.w3.org/2000/svg">
<path d="M37.6804 0.240229C47.1204 6.80023 54.3204 16.2402 59.2804 28.5602C64.2404 40.8802 66.7204 55.0402 66.7204 71.0402C66.7204 80.6402 65.7604 90.7202 63.8404 101.28C59.8404 124 52.4004 144.4 41.5204 162.48C30.6404 180.56 17.5204 193.84 2.16043 202.32H1.92043C1.44043 202.32 1.04043 202 0.720429 201.36C0.240429 200.88 0.240429 200.56 0.720429 200.4C14.0004 189.04 24.7204 175.2 32.8804 158.88C41.2004 142.4 47.2804 123.2 51.1204 101.28C53.5204 87.8402 54.7204 75.3602 54.7204 63.8402C54.7204 38.2402 48.4804 17.6802 36.0004 2.16023V1.92022C36.0004 1.44023 36.1604 1.04023 36.4804 0.720222C36.9604 0.240229 37.3604 0.0802307 37.6804 0.240229Z" fill="#FF6F00"/>
</svg>
