<svg width="40" height="40" viewBox="0 0 40 40" fill="none" xmlns="http://www.w3.org/2000/svg">
<g clip-path="url(#clip0_593_2544)">
<path d="M40 19.9997C40 8.95436 31.0456 0 19.9997 0C8.95375 0 0 8.95436 0 19.9997C0 29.3795 6.45717 37.2496 15.1685 39.4108V26.1113H11.0441V19.9997H15.1685V17.3663C15.1685 10.5587 18.2489 7.40396 24.9323 7.40396C26.1995 7.40396 28.3859 7.65236 29.2799 7.90076V13.4411C28.8077 13.3913 27.9881 13.3667 26.9693 13.3667C23.6897 13.3667 22.4225 14.6087 22.4225 17.8385V19.9997H28.9553L27.8333 26.1113H22.4231V39.853C32.326 38.6572 40 30.2248 40 19.9997Z" fill="#0866FF"/>
<path d="M27.8321 26.1122L28.9547 20.0006H22.4219V17.8388C22.4219 14.6091 23.6891 13.3671 26.9681 13.3671C27.9869 13.3671 28.8065 13.3917 29.2787 13.4415V7.90109C28.3841 7.6527 26.1977 7.4043 24.9311 7.4043C18.2477 7.4043 15.1673 10.5597 15.1673 17.3666V20H11.043V26.1116H15.1673V39.4111C16.7147 39.7951 18.3329 40.0003 19.9991 40.0003C20.8193 40.0003 21.6275 39.9499 22.4219 39.8539V26.1122H27.8321Z" fill="white"/>
</g>
<defs>
<clipPath id="clip0_593_2544">
<rect width="40" height="40" fill="white"/>
</clipPath>
</defs>
</svg>
