<svg width="40" height="40" viewBox="0 0 40 40" fill="none" xmlns="http://www.w3.org/2000/svg">
<g clip-path="url(#clip0_593_2535)">
<path d="M20.0064 0C11.6568 0 9.21485 0.0088 8.74005 0.048C7.02644 0.1904 5.96044 0.4604 4.79844 1.0388C3.90324 1.4836 3.19724 1.9988 2.50044 2.7216C1.23164 4.0392 0.462444 5.66 0.184044 7.5872C0.0488444 8.5224 0.00924445 8.7132 0.00124444 13.4916C-0.00155556 15.0844 0.00124444 17.1804 0.00124444 19.992C0.00124444 28.3372 0.0104444 30.7776 0.0504445 31.2516C0.188844 32.9196 0.450445 33.9688 1.00404 35.1164C2.06244 37.3136 4.08364 38.9628 6.46445 39.5784C7.28885 39.7908 8.19965 39.9076 9.36845 39.9632C9.86365 39.9848 14.912 40 19.9632 40C25.0144 40 30.066 39.994 30.5488 39.9692C31.9024 39.9056 32.6884 39.8 33.5576 39.5752C35.954 38.9568 37.9384 37.332 39.018 35.104C39.5608 33.984 39.8364 32.8944 39.9608 31.314C39.988 30.9692 39.9992 25.4744 39.9992 19.9868C39.9992 14.4992 39.9868 9.0136 39.96 8.6688C39.834 7.0624 39.5584 5.9824 38.998 4.8408C38.538 3.9064 38.0276 3.2084 37.286 2.4948C35.9628 1.2308 34.3448 0.4612 32.4164 0.1832C31.482 0.048 31.296 0.008 26.5152 0H20.0056L20.0064 0Z" fill="url(#paint0_radial_593_2535)"/>
<path d="M20.0064 0C11.6568 0 9.21485 0.0088 8.74005 0.048C7.02644 0.1904 5.96044 0.4604 4.79844 1.0388C3.90324 1.4836 3.19724 1.9988 2.50044 2.7216C1.23164 4.0392 0.462444 5.66 0.184044 7.5872C0.0488444 8.5224 0.00924445 8.7132 0.00124444 13.4916C-0.00155556 15.0844 0.00124444 17.1804 0.00124444 19.992C0.00124444 28.3372 0.0104444 30.7776 0.0504445 31.2516C0.188844 32.9196 0.450445 33.9688 1.00404 35.1164C2.06244 37.3136 4.08364 38.9628 6.46445 39.5784C7.28885 39.7908 8.19965 39.9076 9.36845 39.9632C9.86365 39.9848 14.912 40 19.9632 40C25.0144 40 30.066 39.994 30.5488 39.9692C31.9024 39.9056 32.6884 39.8 33.5576 39.5752C35.954 38.9568 37.9384 37.332 39.018 35.104C39.5608 33.984 39.8364 32.8944 39.9608 31.314C39.988 30.9692 39.9992 25.4744 39.9992 19.9868C39.9992 14.4992 39.9868 9.0136 39.96 8.6688C39.834 7.0624 39.5584 5.9824 38.998 4.8408C38.538 3.9064 38.0276 3.2084 37.286 2.4948C35.9628 1.2308 34.3448 0.4612 32.4164 0.1832C31.482 0.048 31.296 0.008 26.5152 0H20.0056L20.0064 0Z" fill="url(#paint1_radial_593_2535)"/>
<path d="M20.0064 0C11.6568 0 9.21485 0.0088 8.74005 0.048C7.02644 0.1904 5.96044 0.4604 4.79844 1.0388C3.90324 1.4836 3.19724 1.9988 2.50044 2.7216C1.23164 4.0392 0.462444 5.66 0.184044 7.5872C0.0488444 8.5224 0.00924445 8.7132 0.00124444 13.4916C-0.00155556 15.0844 0.00124444 17.1804 0.00124444 19.992C0.00124444 28.3372 0.0104444 30.7776 0.0504445 31.2516C0.188844 32.9196 0.450445 33.9688 1.00404 35.1164C2.06244 37.3136 4.08364 38.9628 6.46445 39.5784C7.28885 39.7908 8.19965 39.9076 9.36845 39.9632C9.86365 39.9848 14.912 40 19.9632 40C25.0144 40 30.066 39.994 30.5488 39.9692C31.9024 39.9056 32.6884 39.8 33.5576 39.5752C35.954 38.9568 37.9384 37.332 39.018 35.104C39.5608 33.984 39.8364 32.8944 39.9608 31.314C39.988 30.9692 39.9992 25.4744 39.9992 19.9868C39.9992 14.4992 39.9868 9.0136 39.96 8.6688C39.834 7.0624 39.5584 5.9824 38.998 4.8408C38.538 3.9064 38.0276 3.2084 37.286 2.4948C35.9628 1.2308 34.3448 0.4612 32.4164 0.1832C31.482 0.048 31.296 0.008 26.5152 0H20.0056L20.0064 0Z" fill="url(#paint2_radial_593_2535)"/>
<path d="M20.0064 0C11.6568 0 9.21485 0.0088 8.74005 0.048C7.02644 0.1904 5.96044 0.4604 4.79844 1.0388C3.90324 1.4836 3.19724 1.9988 2.50044 2.7216C1.23164 4.0392 0.462444 5.66 0.184044 7.5872C0.0488444 8.5224 0.00924445 8.7132 0.00124444 13.4916C-0.00155556 15.0844 0.00124444 17.1804 0.00124444 19.992C0.00124444 28.3372 0.0104444 30.7776 0.0504445 31.2516C0.188844 32.9196 0.450445 33.9688 1.00404 35.1164C2.06244 37.3136 4.08364 38.9628 6.46445 39.5784C7.28885 39.7908 8.19965 39.9076 9.36845 39.9632C9.86365 39.9848 14.912 40 19.9632 40C25.0144 40 30.066 39.994 30.5488 39.9692C31.9024 39.9056 32.6884 39.8 33.5576 39.5752C35.954 38.9568 37.9384 37.332 39.018 35.104C39.5608 33.984 39.8364 32.8944 39.9608 31.314C39.988 30.9692 39.9992 25.4744 39.9992 19.9868C39.9992 14.4992 39.9868 9.0136 39.96 8.6688C39.834 7.0624 39.5584 5.9824 38.998 4.8408C38.538 3.9064 38.0276 3.2084 37.286 2.4948C35.9628 1.2308 34.3448 0.4612 32.4164 0.1832C31.482 0.048 31.296 0.008 26.5152 0H20.0056L20.0064 0Z" fill="url(#paint3_radial_593_2535)"/>
<path d="M20.008 5.13574C15.9688 5.13574 15.462 5.15334 13.8756 5.22534C12.2924 5.29774 11.2116 5.54814 10.266 5.91574C9.28797 6.29534 8.45797 6.80294 7.63157 7.62934C6.80437 8.45534 6.29597 9.28454 5.91517 10.2617C5.54637 11.2069 5.29557 12.2873 5.22437 13.8685C5.15357 15.4537 5.13477 15.9605 5.13477 19.9965C5.13477 24.0325 5.15277 24.5377 5.22477 26.1229C5.29757 27.7049 5.54837 28.7849 5.91557 29.7297C6.29557 30.7073 6.80397 31.5361 7.63077 32.3625C8.45717 33.1893 9.28677 33.6981 10.2644 34.0777C11.2108 34.4453 12.2916 34.6957 13.8748 34.7681C15.4612 34.8401 15.9676 34.8577 20.0064 34.8577C24.0452 34.8577 24.5512 34.8401 26.1376 34.7681C27.7208 34.6957 28.8028 34.4453 29.7492 34.0777C30.7272 33.6981 31.5556 33.1893 32.382 32.3625C33.2092 31.5365 33.7176 30.7073 34.0984 29.7301C34.464 28.7849 34.7148 27.7045 34.7892 26.1233C34.8604 24.5381 34.8792 24.0329 34.8792 19.9969C34.8792 15.9609 34.8608 15.4545 34.7892 13.8693C34.7148 12.2873 34.464 11.2073 34.0984 10.2625C33.7172 9.28494 33.2092 8.45614 32.382 7.62974C31.5548 6.80294 30.7276 6.29534 29.7484 5.91614C28.8004 5.54854 27.7188 5.29814 26.1356 5.22574C24.5492 5.15374 24.044 5.13614 20.004 5.13614H20.0088L20.008 5.13574ZM18.674 7.81414C19.07 7.81334 19.512 7.81414 20.008 7.81414C23.9788 7.81414 24.4496 7.82854 26.0176 7.89974C27.4676 7.96614 28.2548 8.20814 28.7788 8.41134C29.4728 8.68054 29.9676 9.00254 30.488 9.52294C31.0084 10.0429 31.3308 10.5385 31.6008 11.2321C31.8044 11.7553 32.0468 12.5417 32.1128 13.9909C32.184 15.5577 32.1996 16.0281 32.1996 19.9941C32.1996 23.9601 32.184 24.4309 32.1128 25.9973C32.0464 27.4461 31.8044 28.2325 31.6008 28.7561C31.3312 29.4497 31.0084 29.9433 30.488 30.4633C29.9676 30.9833 29.4732 31.3053 28.7788 31.5749C28.2552 31.7793 27.4676 32.0209 26.0176 32.0869C24.45 32.1581 23.9788 32.1737 20.008 32.1737C16.0372 32.1737 15.566 32.1581 13.9984 32.0869C12.5484 32.0201 11.7612 31.7781 11.2368 31.5745C10.5428 31.3053 10.0472 30.9833 9.52637 30.4629C9.00597 29.9429 8.68357 29.4485 8.41357 28.7549C8.20997 28.2317 7.96757 27.4453 7.90157 25.9961C7.83037 24.4293 7.81597 23.9589 7.81597 19.9901C7.81597 16.0213 7.83037 15.5533 7.90157 13.9869C7.96797 12.5381 8.20997 11.7517 8.41357 11.2277C8.68317 10.5341 9.00597 10.0389 9.52637 9.51854C10.0468 8.99854 10.5428 8.67654 11.2368 8.40654C11.7612 8.20214 12.5484 7.96054 13.9984 7.89414C15.3704 7.83214 15.902 7.81374 18.674 7.81054V7.81414ZM27.9468 10.2813C26.9616 10.2813 26.162 11.0793 26.162 12.0641C26.162 13.0489 26.9616 13.8473 27.9468 13.8473C28.932 13.8473 29.7316 13.0485 29.7316 12.0641C29.7316 11.0797 28.932 10.2809 27.9468 10.2809V10.2817V10.2813ZM20.008 12.3653C15.79 12.3653 12.3704 15.7825 12.3704 19.9973C12.3704 24.2121 15.79 27.6277 20.008 27.6277C24.226 27.6277 27.6444 24.2121 27.6444 19.9973C27.6444 15.7825 24.2256 12.3653 20.0076 12.3653H20.008ZM20.008 15.0433C22.7456 15.0433 24.9656 17.2609 24.9656 19.9969C24.9656 22.7329 22.746 24.9505 20.008 24.9505C17.27 24.9505 15.0504 22.7325 15.0504 19.9969C15.0504 17.2613 17.2696 15.0433 20.008 15.0433Z" fill="white"/>
</g>
<defs>
<radialGradient id="paint0_radial_593_2535" cx="0" cy="0" r="1" gradientUnits="userSpaceOnUse" gradientTransform="translate(38.7064 18.7012) rotate(164.25) scale(25.5468 18.4063)">
<stop stop-color="#FF005F"/>
<stop offset="1" stop-color="#FC01D8"/>
</radialGradient>
<radialGradient id="paint1_radial_593_2535" cx="0" cy="0" r="1" gradientUnits="userSpaceOnUse" gradientTransform="translate(10.5745 43.0773) rotate(-90) scale(31.9335 33.8809)">
<stop stop-color="#FFCC00"/>
<stop offset="0.12" stop-color="#FFCC00"/>
<stop offset="0.57" stop-color="#FE4A05"/>
<stop offset="0.69" stop-color="#FF0F3F"/>
<stop offset="1" stop-color="#FE0657" stop-opacity="0"/>
</radialGradient>
<radialGradient id="paint2_radial_593_2535" cx="0" cy="0" r="1" gradientUnits="userSpaceOnUse" gradientTransform="translate(21.0256 39.4404) rotate(-59.87) scale(13.208 17.186)">
<stop stop-color="#FFCC00"/>
<stop offset="1" stop-color="#FFCC00" stop-opacity="0"/>
</radialGradient>
<radialGradient id="paint3_radial_593_2535" cx="0" cy="0" r="1" gradientUnits="userSpaceOnUse" gradientTransform="translate(5.45427 1.65542) rotate(164.27) scale(25.2757 8.61307)">
<stop stop-color="#780CFF"/>
<stop offset="1" stop-color="#820BFF" stop-opacity="0"/>
</radialGradient>
<clipPath id="clip0_593_2535">
<rect width="40" height="40" fill="white"/>
</clipPath>
</defs>
</svg>
