<svg width="40" height="40" viewBox="0 0 40 40" fill="none" xmlns="http://www.w3.org/2000/svg">
<g clip-path="url(#clip0_593_2541)">
<path fill-rule="evenodd" clip-rule="evenodd" d="M4.44444 40H35.5556C38.0111 40 40 38.0111 40 35.5556V4.44444C40 1.98889 38.0111 0 35.5556 0H4.44444C1.98889 0 0 1.98889 0 4.44444V35.5556C0 38.0111 1.98889 40 4.44444 40Z" fill="#007EBB"/>
<path fill-rule="evenodd" clip-rule="evenodd" d="M34.4436 34.4442H28.5102V24.3331C28.5102 21.5609 27.4547 20.0109 25.2658 20.0109C22.8769 20.0109 21.6325 21.622 21.6325 24.3331V34.4442H15.9102V15.1831H21.6325V17.7776C21.6325 17.7776 23.3547 14.5942 27.438 14.5942C31.5214 14.5942 34.4491 17.0887 34.4491 22.2498V34.4442H34.4436ZM9.08247 12.6609C7.13247 12.6609 5.55469 11.072 5.55469 9.10536C5.55469 7.13869 7.13247 5.5498 9.08247 5.5498C11.0325 5.5498 12.6102 7.13869 12.6102 9.10536C12.6102 11.072 11.0325 12.6609 9.08247 12.6609ZM6.12691 34.4442H12.0936V15.1831H6.12691V34.4442Z" fill="white"/>
</g>
<defs>
<clipPath id="clip0_593_2541">
<rect width="40" height="40" fill="white"/>
</clipPath>
</defs>
</svg>
