<svg width="20" height="20" viewBox="0 0 20 20" fill="none" xmlns="http://www.w3.org/2000/svg">
<g clip-path="url(#clip0_593_2566)">
<path fill-rule="evenodd" clip-rule="evenodd" d="M16.9652 12.2715C15.8231 14.3672 14.0816 16.1738 11.8694 17.1191C10.6802 17.6273 9.31945 17.6273 8.13056 17.1191C5.91837 16.1738 4.17688 14.3672 3.03479 12.2715C1.16279 13.0893 0 14.2337 0 15.5003C0 17.9855 4.47718 20.0002 9.99985 20.0002C15.5225 20.0002 19.9997 17.9855 19.9997 15.5003C19.9997 14.2337 18.8366 13.0893 16.9652 12.2715Z" fill="#FF6F00"/>
<path fill-rule="evenodd" clip-rule="evenodd" d="M8.71977 15.7392C9.53247 16.0863 10.4673 16.0863 11.28 15.7392C14.7656 14.2494 16.9997 10.084 16.9997 6.51437C16.9997 2.94474 13.8659 0 9.99987 0C6.13378 0 3 2.91654 3 6.51437C3 10.1122 5.23409 14.2494 8.71977 15.7392ZM9.99987 5C11.1045 5 12 5.89548 12 7.00006C12 8.10464 11.1045 9.00012 9.99987 9.00012C8.89527 9.00012 7.99978 8.10464 7.99978 7.00006C7.99978 5.89548 8.89527 5 9.99987 5Z" fill="#FF6F00"/>
</g>
<defs>
<clipPath id="clip0_593_2566">
<rect width="20" height="20" fill="white"/>
</clipPath>
</defs>
</svg>
