<svg width="21" height="20" viewBox="0 0 21 20" fill="none" xmlns="http://www.w3.org/2000/svg">
<path d="M14.6488 12.8308L14.1175 13.3633C14.1175 13.3633 12.8543 14.6297 9.40685 11.173C5.95935 7.71632 7.2225 6.44997 7.2225 6.44997L7.5571 6.11433C8.38135 5.28775 8.45905 3.9607 7.7398 2.99223L6.26875 1.01048C5.3787 -0.188455 3.65845 -0.346572 2.6382 0.676245L0.806998 2.51223C0.301248 3.01976 -0.0379025 3.67729 0.00339752 4.40646C0.108398 6.27245 0.945948 10.2878 5.6181 14.9724C10.5727 19.94 15.2214 20.1377 17.1226 19.9587C17.7239 19.9022 18.2468 19.5934 18.6682 19.171L20.3254 17.5093C21.444 16.3877 21.1287 14.4645 19.6972 13.6799L17.4684 12.4581C16.5287 11.9428 15.3834 12.0942 14.6491 12.8308H14.6488Z" fill="#FF6F00"/>
</svg>
